<?xml version="1.0" encoding="UTF-8"?>
<svg width="1012px" height="412px" viewBox="0 0 1012 412" version="1.1" xmlns="http://www.w3.org/2000/svg" xmlns:xlink="http://www.w3.org/1999/xlink">
    <g stroke="none" stroke-width="1" fill="none" fill-rule="evenodd">
        <g>
            <rect fill="#000000" x="0" y="0" width="1012" height="412"></rect>
            <g transform="translate(100.000000, 100.000000)" fill="#FFFFFF" fill-rule="nonzero">
                <path d="M103.860465,208.373899 C46.4999141,208.373899 0,161.727812 0,104.18695 C0,46.6460862 46.4999141,0 103.860465,0 C161.221016,0 207.72093,46.6460862 207.72093,104.18695 C207.72093,161.727812 161.221016,208.373899 103.860465,208.373899 Z M103.860465,187.536509 C149.748906,187.536509 186.948837,150.21964 186.948837,104.18695 C186.948837,58.1542589 149.748906,20.8373899 103.860465,20.8373899 C57.9720243,20.8373899 20.772093,58.1542589 20.772093,104.18695 C20.772093,150.21964 57.9720243,187.536509 103.860465,187.536509 Z"></path>
                <path d="M314.697209,161.016195 L297.871814,161.016195 L297.871814,40.3108779 L314.697209,40.3108779 L314.697209,161.016195 Z M357.525488,80.2050081 C357.752094,82.2508711 357.922046,84.5524326 358.035349,87.1097614 C358.148652,89.6670907 358.205302,91.7981656 358.205302,93.5030515 L358.715163,93.5030515 C359.734888,91.3435297 361.122829,89.3261114 362.879023,87.4507368 C364.635218,85.5753623 366.646314,83.9273307 368.912372,82.5065925 C371.17843,81.0858543 373.671057,79.9776951 376.390326,79.1820817 C379.109595,78.3864683 381.942124,77.9886675 384.888,77.9886675 C390.099933,77.9886675 394.57533,78.869512 398.314326,80.6312274 C402.053321,82.3929428 405.169104,84.7513329 407.661767,87.7064685 C410.154431,90.6616044 411.995576,94.1281533 413.185256,98.1062203 C414.374936,102.084287 414.969767,106.346438 414.969767,110.892801 L414.969767,161.016195 L398.99414,161.016195 L398.99414,116.17792 C398.99414,112.881808 398.739212,109.756231 398.229349,106.801095 C397.719486,103.845959 396.784751,101.23184 395.425116,98.958659 C394.065482,96.6854778 392.196012,94.86696 389.816651,93.5030515 C387.43729,92.139143 384.378158,91.4571986 380.639163,91.4571986 C374.2942,91.4571986 369.110671,93.8724169 365.088419,98.7029274 C361.066166,103.533437 359.05507,109.983492 359.05507,118.053285 L359.05507,161.016195 L343.079442,161.016195 L343.079442,97.5947571 C343.079442,95.4352354 343.022792,92.6506298 342.909488,89.2408581 C342.796185,85.8310863 342.626234,82.8191664 342.399628,80.2050081 L357.525488,80.2050081 Z M479.892,93.3325637 L461.197116,93.3325637 L461.197116,161.016195 L445.221488,161.016195 L445.221488,93.3325637 L429.24586,93.3325637 L429.24586,80.2050081 L445.221488,80.2050081 L445.221488,63.3267223 C445.221488,58.5530418 445.759669,54.1488193 446.836047,50.1139227 C447.912424,46.0790262 449.668592,42.5840625 452.104605,39.628927 C454.540617,36.6737915 457.6564,34.3438157 461.452047,32.6389298 C465.247693,30.934044 469.864717,30.0816138 475.303256,30.0816138 C479.155554,30.0816138 482.497939,30.4794145 485.330512,31.275028 L483.461023,45.0845345 C482.214691,44.7435574 480.968379,44.459414 479.722047,44.2320959 C478.475714,44.0047777 477.059449,43.8911204 475.473209,43.8911204 C472.414031,43.8911204 469.94973,44.4309928 468.080233,45.5107539 C466.210735,46.5905149 464.766144,48.0396462 463.746419,49.8581911 C462.726693,51.6767361 462.046886,53.7509828 461.706977,56.0809935 C461.367068,58.4110042 461.197116,60.826223 461.197116,63.3267223 L461.197116,80.2050081 L479.892,80.2050081 L479.892,93.3325637 Z M511.673302,161.016195 L495.697674,161.016195 L495.697674,80.2050081 L511.673302,80.2050081 L511.673302,161.016195 Z M514.392558,51.0516053 C514.392558,54.0067408 513.344522,56.4503739 511.248419,58.3825779 C509.152315,60.3147819 506.631364,61.2808694 503.685488,61.2808694 C500.739613,61.2808694 498.246987,60.2863676 496.207535,58.2973341 C494.168083,56.3083005 493.148372,53.8930818 493.148372,51.0516053 C493.148372,48.0964698 494.168083,45.6244223 496.207535,43.6353888 C498.246987,41.6463553 500.739613,40.6518534 503.685488,40.6518534 C506.631364,40.6518534 509.152315,41.6463553 511.248419,43.6353888 C513.344522,45.6244223 514.392558,48.0964698 514.392558,51.0516053 Z M553.991721,80.2050081 C554.218327,82.2508711 554.388278,84.5524326 554.501581,87.1097614 C554.614885,89.6670907 554.671535,91.7981656 554.671535,93.5030515 L555.181395,93.5030515 C556.201121,91.3435297 557.589061,89.3261114 559.345256,87.4507368 C561.10145,85.5753623 563.112547,83.9273307 565.378605,82.5065925 C567.644662,81.0858543 570.137289,79.9776951 572.856558,79.1820817 C575.575827,78.3864683 578.408357,77.9886675 581.354233,77.9886675 C586.566166,77.9886675 591.041563,78.869512 594.780558,80.6312274 C598.519554,82.3929428 601.635337,84.7513329 604.128,87.7064685 C606.620663,90.6616044 608.461808,94.1281533 609.651488,98.1062203 C610.841168,102.084287 611.436,106.346438 611.436,110.892801 L611.436,161.016195 L595.460372,161.016195 L595.460372,116.17792 C595.460372,112.881808 595.205445,109.756231 594.695581,106.801095 C594.185718,103.845959 593.250983,101.23184 591.891349,98.958659 C590.531714,96.6854778 588.662245,94.86696 586.282884,93.5030515 C583.903523,92.139143 580.844391,91.4571986 577.105395,91.4571986 C570.760433,91.4571986 565.576904,93.8724169 561.554651,98.7029274 C557.532399,103.533437 555.521302,109.983492 555.521302,118.053285 L555.521302,161.016195 L539.545674,161.016195 L539.545674,97.5947571 C539.545674,95.4352354 539.489024,92.6506298 539.375721,89.2408581 C539.262418,85.8310863 539.092466,82.8191664 538.86586,80.2050081 L553.991721,80.2050081 Z M654.604186,161.016195 L638.628558,161.016195 L638.628558,80.2050081 L654.604186,80.2050081 L654.604186,161.016195 Z M657.323442,51.0516053 C657.323442,54.0067408 656.275406,56.4503739 654.179302,58.3825779 C652.083199,60.3147819 649.562248,61.2808694 646.616372,61.2808694 C643.670497,61.2808694 641.177871,60.2863676 639.138419,58.2973341 C637.098966,56.3083005 636.079256,53.8930818 636.079256,51.0516053 C636.079256,48.0964698 637.098966,45.6244223 639.138419,43.6353888 C641.177871,41.6463553 643.670497,40.6518534 646.616372,40.6518534 C649.562248,40.6518534 652.083199,41.6463553 654.179302,43.6353888 C656.275406,45.6244223 657.323442,48.0964698 657.323442,51.0516053 Z M721.905767,93.3325637 L700.491628,93.3325637 L700.491628,135.443034 C700.491628,140.330374 701.398037,143.825338 703.210884,145.92803 C705.02373,148.030723 707.91291,149.082053 711.878512,149.082053 C713.351449,149.082053 714.937666,148.911567 716.637209,148.57059 C718.336753,148.229613 719.866319,147.718155 721.225953,147.0362 L721.735814,160.163756 C719.809665,160.845711 717.685267,161.385583 715.362558,161.78339 C713.039849,162.181196 710.632198,162.380097 708.139535,162.380097 C700.548241,162.380097 694.741555,160.277435 690.719302,156.07205 C686.69705,151.866665 684.685953,145.558682 684.685953,137.147912 L684.685953,93.3325637 L669.220186,93.3325637 L669.220186,80.2050081 L684.685953,80.2050081 L684.685953,57.018676 L700.491628,57.018676 L700.491628,80.2050081 L721.905767,80.2050081 L721.905767,93.3325637 Z M768.982884,143.626446 L769.322791,143.626446 L791.586698,80.2050081 L808.582047,80.2050081 L769.492744,180.110821 C768.13311,183.520593 766.660194,186.560927 765.073953,189.231915 C763.487713,191.902903 761.618243,194.17605 759.465488,196.051424 C757.312734,197.926799 754.791782,199.375931 751.902558,200.398862 C749.013335,201.421793 745.585973,201.933251 741.620372,201.933251 C739.920829,201.933251 738.192985,201.848008 736.436791,201.67752 C734.680596,201.507031 732.896102,201.194473 731.083256,200.739837 L732.612837,186.589355 C735.332106,187.498628 737.994684,187.953257 740.600651,187.953257 C744.792858,187.953257 747.908641,186.788269 749.948093,184.458258 C751.987545,182.128248 753.857015,178.80377 755.556558,174.484726 L760.655163,161.016195 L726.154605,80.2050081 L743.999721,80.2050081 L768.982884,143.626446 Z"></path>
            </g>
        </g>
    </g>
</svg>
